<?xml version="1.0" standalone="no"?>
<!DOCTYPE svg PUBLIC "-//W3C//DTD SVG 20010904//EN"
 "http://www.w3.org/TR/2001/REC-SVG-20010904/DTD/svg10.dtd">
<svg version="1.0" xmlns="http://www.w3.org/2000/svg"
 width="583.000000pt" height="447.000000pt" viewBox="0 0 583.000000 447.000000"
 preserveAspectRatio="xMidYMid meet">

<g transform="translate(0.000000,447.000000) scale(0.100000,-0.100000)"
fill="#000000" stroke="none">
<path d="M3200 4450 c-52 -4 -142 -15 -200 -24 -58 -10 -161 -27 -230 -38
-370 -60 -724 -218 -1024 -458 -533 -425 -867 -1115 -926 -1915 -9 -130 -18
-215 -46 -460 -4 -27 -11 -59 -17 -70 -25 -50 -97 -121 -224 -221 -350 -275
-498 -408 -512 -461 -23 -82 52 -167 227 -256 201 -103 380 -165 898 -308 938
-258 1274 -294 1634 -171 324 111 832 322 1121 467 86 44 94 46 264 65 582 66
1024 174 1319 321 212 107 317 211 341 339 6 34 4 37 -62 91 -135 111 -192
213 -192 341 0 123 -21 396 -42 543 -72 507 -243 942 -512 1305 -96 129 -348
379 -465 460 -52 36 -106 77 -122 92 -15 14 -71 52 -125 83 -277 163 -558 252
-865 275 -69 5 -129 9 -135 8 -5 0 -53 -4 -105 -8z m-196 -99 c-101 -40 -235
-113 -329 -179 -110 -78 -335 -304 -431 -434 -449 -605 -750 -1521 -794 -2413
-8 -172 -10 -185 -46 -283 -21 -59 -41 -101 -48 -99 -6 2 -144 48 -306 102
-162 54 -298 100 -302 104 -4 3 10 53 31 111 34 93 39 119 45 230 21 404 142
838 351 1265 361 736 932 1307 1530 1530 182 68 459 129 299 66z m501 23
c-238 -28 -396 -86 -590 -217 -118 -80 -330 -291 -433 -432 -421 -569 -697
-1456 -728 -2332 l-7 -202 -150 -105 c-83 -58 -152 -104 -154 -103 -1 2 10 37
26 78 25 68 28 93 34 245 32 832 329 1768 743 2345 340 474 757 729 1189 726
55 0 87 -2 70 -3z m261 -69 c669 -157 1231 -648 1503 -1313 155 -379 224 -718
246 -1215 7 -146 7 -148 -20 -202 -67 -139 -352 -285 -738 -379 -432 -106
-861 -155 -1447 -163 -486 -7 -821 12 -1200 67 -238 36 -322 52 -310 64 6 6
10 77 10 181 0 543 141 1208 368 1734 299 692 716 1120 1192 1221 107 23 309
26 396 5z m-1316 -76 c-234 -126 -414 -263 -630 -479 -221 -220 -382 -425
-541 -690 -84 -141 -217 -409 -272 -550 -24 -63 -52 -133 -61 -155 l-16 -40 6
45 c18 134 103 434 173 609 77 191 248 476 384 637 186 222 438 417 702 546
99 48 306 127 335 127 8 1 -28 -22 -80 -50z m3214 -2853 c33 -35 73 -72 88
-83 25 -18 26 -23 17 -55 -51 -185 -436 -371 -1011 -487 -417 -85 -847 -127
-1388 -137 -837 -16 -1634 78 -2175 257 -127 42 -360 152 -410 194 -25 21 5
13 195 -51 394 -133 368 -123 363 -145 -3 -10 -2 -19 2 -19 5 0 88 56 186 125
98 69 184 128 192 131 8 3 59 -4 113 -15 508 -103 1240 -142 1884 -100 877 57
1559 246 1777 493 l48 55 29 -50 c16 -28 56 -79 90 -113z m-4934 -98 c-23 -62
-43 -115 -45 -116 -6 -6 -45 76 -45 95 0 15 119 141 128 136 2 -1 -15 -52 -38
-115z m-50 -188 c245 -251 936 -439 1890 -512 181 -14 990 -18 1180 -6 l115 7
-40 -21 c-232 -123 -1022 -439 -1183 -472 -219 -46 -533 -20 -955 79 -209 50
-814 217 -997 277 -257 84 -446 170 -538 245 -40 33 -72 78 -72 103 0 28 195
204 440 397 l65 51 23 -49 c13 -27 45 -72 72 -99z"/>
</g>
</svg>
